<?xml version="1.0" encoding="utf-8"?>
<!-- Generator: Adobe Illustrator 27.5.0, SVG Export Plug-In . SVG Version: 6.00 Build 0)  -->
<svg version="1.1" xmlns="http://www.w3.org/2000/svg" xmlns:xlink="http://www.w3.org/1999/xlink" x="0px" y="0px"
	 viewBox="0 0 500 500" style="enable-background:new 0 0 500 500;" xml:space="preserve">
<g id="BACKGROUND">
	<rect style="fill:#FFFFFF;" width="500" height="500"/>
</g>
<g id="OBJECTS">
	<g>
		<path style="fill:#DA199E;" d="M357.753,218.733c0.282-1.976,0.467-3.985,0.543-6.016c0.011-0.391,0.011-0.793,0.022-1.205
			c0.033-0.402,0.033-0.814,0.033-1.227c0-16.572-6.711-31.557-17.57-42.406c-4.072-4.072-8.731-7.547-13.824-10.316
			c-1.271-0.706-2.574-1.346-3.888-1.944c-0.456-0.195-0.891-0.402-1.346-0.576c-1.347-0.586-2.715-1.108-4.094-1.564
			c-6.038-2.053-12.521-3.16-19.254-3.16c-16.55,0-31.536,6.711-42.374,17.56c-2.172,2.172-4.181,4.518-6.005,7.004
			c7.265,9.925,11.554,22.164,11.554,35.402c0,0.413,0,0.814-0.011,1.227c0,0.413-0.011,0.814-0.022,1.216
			c-0.054,1.227-0.141,2.422-0.261,3.616c0.011,0.022,0.011,0.054,0,0.065c-0.087,0.771-0.185,1.553-0.282,2.313
			c0,0.011,0,0.022,0,0.022c-0.065,0.391-0.119,0.782-0.185,1.184c-0.195,1.162-0.413,2.324-0.673,3.475
			c-0.271,1.151-0.554,2.302-0.88,3.421c-0.206,0.749-0.434,1.499-0.684,2.237h23.055c0,13.411-10.034,24.466-23,26.052
			c10.577,9.415,24.499,15.116,39.767,15.116h59.977l-17.56-17.56C349.76,243.699,355.885,231.905,357.753,218.733z M271.572,216.67
			c-5.527,0-10.023-4.507-10.023-10.034c0-5.538,4.496-10.023,10.023-10.023c5.549,0,10.034,4.485,10.034,10.023
			C281.606,212.163,277.121,216.67,271.572,216.67z"/>
		<path style="fill:#65B2FB;" d="M240.753,226.823c-0.326-1.119-0.608-2.27-0.88-3.421c-0.261-1.151-0.478-2.313-0.673-3.475
			c-0.065-0.402-0.119-0.793-0.185-1.184c0,0,0-0.011,0-0.022c-0.098-0.76-0.185-1.542-0.282-2.313
			c-0.011-0.011-0.011-0.043,0-0.065c-0.109-1.194-0.206-2.389-0.261-3.627c-0.011-0.391-0.022-0.793-0.022-1.205
			c-0.011-0.423-0.011-0.814-0.011-1.227c0-13.238,4.289-25.476,11.554-35.402c-1.813-2.487-3.822-4.833-5.994-7.004
			c-10.848-10.849-25.835-17.56-42.384-17.56c-6.733,0-13.205,1.108-19.243,3.16c-1.39,0.456-2.758,0.977-4.105,1.564
			c-0.445,0.174-0.891,0.38-1.336,0.576c-1.325,0.597-2.628,1.238-3.899,1.944c-5.093,2.758-9.741,6.244-13.813,10.316
			c-10.859,10.849-17.571,25.835-17.571,42.395c0,0.424,0,0.836,0.022,1.238c0.011,0.413,0.011,0.814,0.033,1.205
			c0.076,2.031,0.25,4.04,0.543,6.016c1.857,13.173,7.982,24.966,16.952,33.936l-17.549,17.56h59.966
			c15.268,0,29.19-5.701,39.767-15.116c-12.966-1.585-23-12.64-23-26.052h23.055C241.188,228.322,240.959,227.572,240.753,226.823z
			 M228.417,216.67c-5.538,0-10.034-4.507-10.034-10.034c0-5.538,4.496-10.023,10.034-10.023s10.023,4.485,10.023,10.023
			C238.44,212.163,233.955,216.67,228.417,216.67z"/>
		<path style="fill:#772EA4;" d="M261.549,210.284c0,0.413,0,0.814-0.011,1.227c0,0.413-0.011,0.814-0.022,1.216
			c-0.054,1.227-0.141,2.422-0.261,3.616c0.011,0.022,0.011,0.054,0,0.065c-0.087,0.771-0.185,1.553-0.282,2.313
			c0,0.011,0,0.022,0,0.022c-0.065,0.391-0.119,0.782-0.185,1.184c-0.195,1.162-0.413,2.324-0.673,3.475
			c-0.271,1.151-0.554,2.302-0.88,3.421c-0.206,0.749-0.434,1.499-0.684,2.237h-17.115c-0.25-0.738-0.478-1.488-0.684-2.237
			c-0.326-1.119-0.608-2.27-0.88-3.421c-0.261-1.151-0.478-2.313-0.673-3.475c-0.065-0.402-0.119-0.793-0.185-1.184
			c0,0,0-0.011,0-0.022c-0.098-0.76-0.185-1.542-0.282-2.313c-0.011-0.011-0.011-0.043,0-0.065
			c-0.109-1.194-0.206-2.389-0.261-3.627c-0.011-0.391-0.022-0.793-0.022-1.205c-0.011-0.423-0.011-0.814-0.011-1.227
			c0-13.238,4.289-25.476,11.554-35.402C257.26,184.808,261.549,197.047,261.549,210.284z"/>
	</g>
</g>
<g id="TEXTS">
	<text transform="matrix(1 0 0 1 135.9478 317.0869)" style="fill:#772EA4; font-family:'JosefinSans-Bold'; font-size:37.1629px;">CHATING</text>
	<g>
		<text transform="matrix(1 0 0 1 211.625 344.7627)" style="font-family:'JosefinSans-SemiBold'; font-size:20.4122px;">LOGO</text>
	</g>
</g>
</svg>
